<?xml version="1.0" encoding="utf-8"?>
<!-- Generator: Adobe Illustrator 25.2.0, SVG Export Plug-In . SVG Version: 6.00 Build 0)  -->
<svg version="1.1" id="Layer_1" xmlns="http://www.w3.org/2000/svg" xmlns:xlink="http://www.w3.org/1999/xlink" x="0px" y="0px"
	 viewBox="0 0 243.74 265.84" style="enable-background:new 0 0 243.74 265.84;" xml:space="preserve">
<style type="text/css">
	.st0{fill:#44546A;}
	.st1{fill:#45556B;}
</style>
<path class="st0" d="M232.86,132.17c0,28.46,0.12,56.92-0.05,85.39c-0.1,16.36-7.74,28.29-22.46,35.52
	c-5.03,2.47-10.46,3.46-16.06,3.46c-48.1,0-96.21,0.06-144.31-0.03c-21.72-0.04-38.52-16.82-38.55-38.53
	c-0.08-57.2-0.08-114.4,0-171.6C11.46,24.66,28.26,7.88,49.98,7.84c48.1-0.09,96.21-0.09,144.31,0
	c21.88,0.04,38.53,16.95,38.57,38.94C232.9,75.24,232.86,103.71,232.86,132.17z M121.11,23.15c-23.5,0-46.99-0.03-70.49,0.01
	c-15.97,0.03-27.99,11.95-28.01,27.87c-0.05,39.03-0.04,78.05,0,117.08c0.02,15.92,12.02,27.88,27.98,27.89
	c46.99,0.03,93.98,0.03,140.97,0c16.06-0.01,28-11.99,28.01-28.07c0.03-38.89,0.02-77.78-0.02-116.67c0-2.19-0.18-4.44-0.67-6.57
	c-3-13.02-13.78-21.51-27.3-21.54C168.1,23.12,144.61,23.15,121.11,23.15z"/>
<path class="st0" d="M156.97,69.13c18.08,30.94,35.95,61.53,53.95,92.33c-36.02,0-71.82,0-107.9,0
	C120.98,130.72,138.88,100.09,156.97,69.13z"/>
<path class="st0" d="M121.72,100.3c-13.4-22.83-26.57-45.28-39.86-67.93c26.66,0,53.05,0,79.73,0
	C148.3,55,135.12,77.46,121.72,100.3z"/>
<path class="st0" d="M111.4,117.81c-5.55,9.56-10.99,18.92-16.42,28.28c-1.04,1.79-2.15,3.54-3.09,5.39
	c-0.59,1.16-1.36,1.46-2.62,1.45c-11.68-0.05-23.36-0.01-35.04-0.07c-0.8,0-1.96-0.45-2.32-1.07c-6.55-11.12-13.01-22.3-19.48-33.46
	c-0.06-0.11-0.08-0.25-0.17-0.52C58.57,117.81,84.84,117.81,111.4,117.81z"/>
<path class="st0" d="M32.11,105.9c5.82-9.96,11.77-19.59,17.1-29.56c2.2-4.11,4.69-5.42,9.27-5.24c10.14,0.4,20.32,0.17,30.47,0.08
	c1.7-0.02,2.54,0.59,3.35,1.99c5.97,10.34,12.02,20.63,18.04,30.94c0.31,0.53,0.6,1.07,1.01,1.78
	C84.92,105.9,58.65,105.9,32.11,105.9z"/>
<path class="st1" d="M88.64,67.05c-11.38,0-22.41,0-33.78,0c5.65-9.71,11.21-19.25,16.89-29C77.4,47.75,82.93,57.25,88.64,67.05z"/>
<path class="st1" d="M71.75,186.09c-5.7-9.78-11.23-19.28-16.87-28.96c11.34,0,22.4,0,33.73,0
	C82.97,166.81,77.44,176.31,71.75,186.09z"/>
</svg>
