<?xml version="1.0" encoding="utf-8"?>
<!-- Generator: Adobe Illustrator 25.2.0, SVG Export Plug-In . SVG Version: 6.00 Build 0)  -->
<svg version="1.1" id="Layer_1" xmlns="http://www.w3.org/2000/svg" xmlns:xlink="http://www.w3.org/1999/xlink" x="0px" y="0px"
	 viewBox="0 0 367.48 265.84" style="enable-background:new 0 0 367.48 265.84;" xml:space="preserve">
<style type="text/css">
	.st0{fill:#44546A;}
	.st1{fill:#45556B;}
	.st2{fill:#46566B;}
	.st3{fill:#47566C;}
	.st4{fill:#46566C;}
	.st5{fill:#49596E;}
	.st6{fill:#48576D;}
	.st7{fill:#47576D;}
	.st8{fill:#47576C;}
</style>
<path class="st0" d="M232.86,132.17c0,28.46,0.12,56.92-0.05,85.39c-0.1,16.36-7.74,28.29-22.46,35.52
	c-5.03,2.47-10.46,3.46-16.06,3.46c-48.1,0-96.21,0.06-144.31-0.03c-21.72-0.04-38.52-16.82-38.55-38.53
	c-0.08-57.2-0.08-114.4,0-171.6C11.46,24.66,28.26,7.88,49.98,7.84c48.1-0.09,96.21-0.09,144.31,0
	c21.88,0.04,38.53,16.95,38.57,38.94C232.9,75.24,232.86,103.71,232.86,132.17z M121.11,23.15c-23.5,0-46.99-0.03-70.49,0.01
	c-15.97,0.03-27.99,11.95-28.01,27.87c-0.05,39.03-0.04,78.05,0,117.08c0.02,15.92,12.02,27.88,27.98,27.89
	c46.99,0.03,93.98,0.03,140.97,0c16.06-0.01,28-11.99,28.01-28.07c0.03-38.89,0.02-77.78-0.02-116.67c0-2.19-0.18-4.44-0.67-6.57
	c-3-13.02-13.78-21.51-27.3-21.54C168.1,23.12,144.61,23.15,121.11,23.15z"/>
<path class="st1" d="M307.46,59.93c0,5.18,0.02,10.35-0.02,15.53c-0.01,0.95-0.09,1.95-0.38,2.85c-0.5,1.6-1.75,2.24-3.39,2.09
	c-1.57-0.14-2.58-1.04-2.79-2.59c-0.18-1.29-0.15-2.62-0.15-3.93c-0.01-6.56-0.01-13.12,0-19.68c0-0.76,0.03-1.52,0.04-2.28
	c0.03-2.14,1.1-3.51,3.15-4.06c2.07-0.55,3.41,0.49,4.46,2.14c3.84,6.04,7.71,12.08,11.56,18.12c0.17,0.27,0.34,0.53,0.83,1.3
	c0-3.15,0-5.73,0-8.31c0-3.24-0.05-6.49,0.04-9.73c0.07-2.36,1.41-3.74,3.33-3.69c1.87,0.05,3.06,1.38,3.23,3.61
	c0.03,0.41,0.02,0.83,0.02,1.24c0,7.59,0,15.19,0,22.78c0,1.98-0.07,3.98-2.28,4.88c-2.06,0.84-4.29,0.07-5.86-2.33
	c-3.5-5.37-6.82-10.85-10.22-16.28c-0.39-0.62-0.8-1.21-1.21-1.81C307.72,59.83,307.59,59.88,307.46,59.93z"/>
<path class="st2" d="M306.9,115.54c3.3,2.59,5.38,5.87,7,9.48c1.06,2.36,0.76,3.74-0.88,4.68c-1.71,0.98-3.84,0.55-5.1-1.29
	c-1.25-1.81-2.21-3.82-3.39-5.68c-0.88-1.4-1.85-2.74-2.86-4.05c-1.62-2.11-3.86-2.43-6.58-2.08c0,3.33,0.07,6.63-0.02,9.92
	c-0.07,2.5-1.49,3.78-3.79,3.63c-2.09-0.13-3.23-1.53-3.24-4.24c-0.04-6.91-0.02-13.81-0.02-20.72c0-1.24-0.05-2.49,0.06-3.73
	c0.17-1.96,1.2-3.32,3.26-3.34c5.04-0.04,10.09-0.18,15.11,0.16c4.28,0.29,7.11,3.61,7.57,8.02c0.41,3.86-1.71,7.07-5.69,8.62
	C307.91,115.09,307.5,115.28,306.9,115.54z M295.23,110.94c2.77,0,5.44,0.17,8.08-0.05c2.37-0.2,3.45-1.56,3.44-3.6
	c-0.01-2.03-1.14-3.42-3.46-3.6c-2.65-0.21-5.32-0.05-8.07-0.05C295.23,106.15,295.23,108.52,295.23,110.94z"/>
<path class="st2" d="M333.45,64.18c0-3.8-0.06-7.6,0.02-11.4c0.07-3.43,1.07-4.48,4.49-4.53c3.66-0.05,7.33-0.04,10.98,0.2
	c5.46,0.35,9.86,4.38,11.16,10.1c0.88,3.89,0.85,7.81-0.21,11.68c-1.56,5.74-5.86,9.33-11.79,9.62c-3.52,0.17-7.05,0.12-10.57,0.05
	c-2.81-0.06-3.89-1.08-3.97-3.9c-0.11-3.93-0.03-7.87-0.03-11.81C333.51,64.18,333.48,64.18,333.45,64.18z M340.73,74.11
	c2.08,0,3.93,0.02,5.79,0c2.86-0.04,4.86-1.42,5.89-4.06c1.47-3.79,1.56-7.68,0.28-11.53c-0.75-2.24-2.33-3.8-4.75-4.09
	c-2.35-0.28-4.74-0.3-7.2-0.45C340.73,60.87,340.73,67.39,340.73,74.11z"/>
<path class="st2" d="M279.39,166.14c0,0.81,0,1.29,0,1.77c0,1.93,0,3.86,0,6.13c0.74,0,1.39,0,2.04,0c4.01,0,8.02-0.03,12.03,0.02
	c2.28,0.03,3.54,1.16,3.5,2.95c-0.04,1.7-1.26,2.79-3.43,2.81c-5.81,0.05-11.61,0.06-17.42-0.01c-2.46-0.03-3.76-1.26-3.78-3.74
	c-0.08-8.01-0.08-16.03-0.01-24.04c0.02-2.53,1.15-3.73,3.7-3.78c5.73-0.13,11.47-0.09,17.2-0.06c1.77,0.01,3.12,0.73,3.16,2.78
	c0.03,1.76-1.1,2.76-3.36,2.79c-4.42,0.05-8.84,0.02-13.44,0.02c0,2.2,0,4.29,0,6.72c3.4,0,6.83-0.01,10.26,0.01
	c1.03,0.01,2.07,0.05,3.09,0.2c1.42,0.2,2.19,1.07,2.22,2.53c0.03,1.45-0.69,2.45-2.09,2.65c-1.56,0.22-3.16,0.22-4.74,0.24
	C285.42,166.17,282.53,166.14,279.39,166.14z"/>
<path class="st3" d="M254.43,180.33c-3.04-0.01-6.73-0.59-9.25-3.61c-1.3-1.55-2.09-3.66-2.67-5.65c-0.42-1.44,0.59-2.7,2.07-3.16
	c1.53-0.48,2.88-0.05,3.74,1.4c0.35,0.59,0.61,1.23,0.91,1.86c1.81,3.74,6.08,4.98,9.59,2.78c2.71-1.7,2.67-4.9-0.23-6.2
	c-1.99-0.89-4.21-1.27-6.3-1.95c-1.63-0.53-3.32-1-4.83-1.8c-5.36-2.84-5.99-10.2-1.27-13.85c4.35-3.37,12.88-3.48,17.14-0.01
	c1.22,0.99,2.17,2.49,2.82,3.95c0.85,1.92-0.02,3.88-1.63,4.55c-1.64,0.68-3.22,0.13-4.23-1.89c-1.4-2.8-3.41-4.29-6.6-3.77
	c-0.87,0.14-1.78,0.4-2.51,0.85c-2.01,1.25-1.97,3.59,0.17,4.57c1.86,0.85,3.91,1.29,5.87,1.93c1.77,0.57,3.58,1.05,5.29,1.77
	c7.53,3.2,6.19,12.65,1.46,15.78C261.56,179.46,258.86,180.32,254.43,180.33z"/>
<path class="st4" d="M313.51,172.72c-4.64-1.58-6.9,0.49-8.03,4.9c-0.65,2.54-2.43,3.25-4.38,2.53c-1.95-0.72-2.73-2.59-1.8-5
	c3.1-8.03,6.29-16.03,9.46-24.03c0.83-2.09,2.27-3.47,4.63-3.52c2.35-0.05,3.94,1.21,4.79,3.3c3.27,8.04,6.5,16.09,9.72,24.15
	c0.25,0.63,0.6,1.5,0.36,1.98c-0.57,1.14-1.26,2.46-2.29,3.06c-1.23,0.72-2.71,0.25-3.65-1.04c-0.32-0.44-0.64-0.94-0.76-1.46
	C320.61,173.16,318.13,171.15,313.51,172.72z M317.58,166.86c-1.36-3.85-2.67-7.53-4.12-11.6c-1.42,4.08-2.71,7.79-4.03,11.6
	C312.29,166.86,314.82,166.86,317.58,166.86z"/>
<path class="st4" d="M296.83,76.85c-0.03,1.87-0.88,2.99-2.42,3.43c-1.62,0.46-3.07,0.02-3.85-1.58c-0.79-1.6-1.33-3.33-2.16-4.91
	c-0.3-0.57-1.13-1.17-1.74-1.2c-3.1-0.12-6.21-0.12-9.31,0c-0.6,0.02-1.41,0.66-1.7,1.23c-0.78,1.52-1.3,3.18-1.99,4.76
	c-0.77,1.79-2.26,2.14-3.96,1.67c-1.67-0.46-2.62-2.16-2.17-3.91c0.34-1.33,0.86-2.61,1.36-3.89c2.61-6.67,5.23-13.33,7.85-20
	c0.2-0.51,0.42-1.02,0.64-1.52c0.89-2.01,2.37-3.23,4.62-3.23c2.25,0,3.82,1.2,4.64,3.22c3.31,8.1,6.55,16.22,9.8,24.34
	C296.67,75.82,296.73,76.45,296.83,76.85z M286.08,66.95c-1.38-3.88-2.69-7.54-4.13-11.59c-1.42,4.07-2.7,7.74-4.04,11.59
	C280.69,66.95,283.22,66.95,286.08,66.95z"/>
<path class="st4" d="M270.75,126.58c-0.01,1.82-0.82,2.97-2.35,3.43c-1.61,0.49-3.08,0.07-3.89-1.5c-0.79-1.52-1.48-3.12-2.02-4.75
	c-0.4-1.21-1.05-1.54-2.26-1.51c-2.9,0.08-5.8,0.08-8.69,0c-1.15-0.03-1.74,0.31-2.1,1.42c-0.51,1.57-1.12,3.11-1.83,4.6
	c-0.84,1.76-2.48,2.43-4.12,1.67c-1.57-0.72-2.51-1.94-2.03-3.81c0.19-0.73,0.37-1.47,0.65-2.17c2.88-7.37,5.78-14.74,8.68-22.11
	c0.18-0.45,0.42-0.87,0.61-1.31c0.85-1.96,2.34-3.07,4.48-3.1c2.25-0.03,3.85,1.15,4.68,3.15c3.32,8.09,6.56,16.21,9.81,24.33
	C270.59,125.5,270.65,126.13,270.75,126.58z M259.99,116.69c-1.38-3.88-2.69-7.6-4.11-11.6c-1.4,4-2.69,7.71-4.05,11.6
	C254.61,116.69,257.17,116.69,259.99,116.69z"/>
<path class="st5" d="M250.58,73.97c3.54,0,6.83-0.01,10.13,0.01c1.03,0.01,2.08,0.01,3.09,0.18c1.54,0.25,2.48,1.22,2.5,2.82
	c0.02,1.52-0.92,2.41-2.32,2.79c-0.59,0.16-1.23,0.18-1.85,0.18c-4.76,0.01-9.53,0.03-14.29,0c-3.2-0.02-4.46-1.16-4.49-4.34
	c-0.07-7.87-0.06-15.73,0-23.6c0.02-2.72,1.38-4.25,3.49-4.3c2.11-0.05,3.45,1.46,3.66,4.15c0.04,0.48,0.03,0.97,0.03,1.45
	c0.02,5.45,0.03,10.9,0.04,16.35C250.58,71,250.58,72.36,250.58,73.97z"/>
<path class="st6" d="M287.52,208c-1.3,0-2.51,0.2-3.61-0.07c-0.69-0.17-1.2-1.04-1.79-1.59c0.6-0.54,1.16-1.47,1.8-1.53
	c2.05-0.19,4.14-0.11,6.21-0.03c1.36,0.05,2.16,0.81,2.15,2.26c0,0.55,0,1.1,0,1.66c0,4.8-0.51,5.63-5.18,7
	c-4.32,1.27-8.58,1.12-12.05-2.14c-3.42-3.22-3.83-7.42-2.7-11.7c1.84-7.01,12.81-9.74,17.87-4.54c0.33,0.34,0.64,0.73,0.89,1.14
	c0.77,1.27,0.92,2.53-0.48,3.44c-1.29,0.84-2.61,0.65-3.45-0.65c-1.57-2.42-3.63-3.27-6.38-2.42c-2.86,0.89-3.59,3.22-3.83,5.8
	c-0.52,5.46,2.85,8.85,7.63,7.73C287.59,211.65,287.7,211.51,287.52,208z"/>
<path class="st2" d="M242.4,205.42c0-2.55,0.02-5.1-0.01-7.65c-0.02-1.72,0.85-2.57,2.51-2.58c2.55-0.02,5.11-0.09,7.65,0.06
	c3.84,0.22,6.62,2.47,7.67,6.16c0.83,2.92,0.76,5.87-0.23,8.75c-1.21,3.5-4.08,5.59-7.81,5.73c-2.34,0.08-4.69,0.02-7.03,0.03
	c-1.89,0-2.76-0.97-2.76-2.83C242.41,210.52,242.4,207.97,242.4,205.42z M247.53,199.05c0,4.45,0,8.76,0,13.06
	c6.56,0.29,8.29-1.31,8.14-7.37C255.56,199.96,253.45,198.47,247.53,199.05z"/>
<path class="st2" d="M281.86,113.93c0,4.14,0.06,8.28-0.02,12.42c-0.05,2.75-1.83,4.22-4.27,3.76c-1.78-0.34-2.76-1.75-2.78-4.27
	c-0.04-5.11-0.01-10.21-0.02-15.32c0-2.76-0.02-5.52,0-8.28c0.03-3.17,1.3-4.85,3.62-4.8c2.25,0.05,3.46,1.64,3.48,4.7
	c0.03,3.93,0.01,7.87,0.01,11.8C281.87,113.93,281.87,113.93,281.86,113.93z"/>
<path class="st7" d="M334.67,210.94c-2.26,0-4.33-0.08-6.39,0.05c-0.57,0.04-1.29,0.57-1.59,1.08c-0.56,0.93-0.66,2.18-1.34,2.98
	c-0.55,0.65-1.86,1.33-2.47,1.09c-0.79-0.31-1.27-1.5-1.75-2.39c-0.15-0.27,0.1-0.8,0.25-1.18c2-5.06,4.02-10.1,6.01-15.16
	c0.63-1.61,1.6-2.66,3.5-2.67c1.91-0.01,2.89,1.09,3.53,2.66c2.03,4.97,4.01,9.96,6.05,14.92c0.66,1.62,0.67,3.09-1.11,3.81
	c-1.82,0.74-2.81-0.42-3.41-2.03C335.55,213.08,335.13,212.08,334.67,210.94z M328.29,207.53c1.78,0,3.35,0,5.17,0
	c-0.84-2.63-1.63-5.1-2.59-8.09C329.92,202.41,329.12,204.92,328.29,207.53z"/>
<path class="st8" d="M314.1,198.91c0,4.51,0,8.78,0,13.05c0,0.62,0.05,1.25-0.02,1.86c-0.17,1.46-0.84,2.5-2.48,2.49
	c-1.61-0.01-2.44-0.97-2.47-2.47c-0.08-3.79-0.06-7.59-0.07-11.39c0-1.09,0-2.18,0-3.55c-1.5,0-2.86,0.01-4.21,0
	c-1.33-0.02-2.39-0.52-2.34-2.01c0.05-1.42,1.18-1.71,2.38-1.72c4.49-0.01,8.98-0.01,13.47,0c1.19,0,2.33,0.29,2.34,1.74
	c0.01,1.48-1.07,1.96-2.39,1.99C317,198.93,315.69,198.91,314.1,198.91z"/>
<path class="st3" d="M348.1,212.17c2.79,0,5.33,0,7.87,0c1.27,0,2.5,0.25,2.5,1.81c0,1.49-1.14,1.92-2.44,1.92
	c-3.45,0.01-6.91,0.02-10.36,0c-1.68-0.01-2.58-0.93-2.59-2.58c-0.03-5.39-0.03-10.77,0-16.16c0.01-1.58,0.85-2.4,2.47-2.4
	c1.77,0.01,2.51,1.07,2.53,2.64c0.06,4.28,0.02,8.56,0.02,12.85C348.1,210.79,348.1,211.34,348.1,212.17z"/>
<path class="st6" d="M300.58,205.35c0,2.69,0.01,5.38,0,8.07c-0.01,1.65-0.62,2.87-2.48,2.89c-1.77,0.02-2.48-1.21-2.51-2.7
	c-0.08-5.45-0.07-10.9-0.02-16.35c0.02-1.62,0.92-2.55,2.64-2.49c1.77,0.06,2.38,1.1,2.37,2.72
	C300.57,200.11,300.58,202.73,300.58,205.35z"/>
<path class="st6" d="M263.86,205.44c0-2.62-0.01-5.24,0-7.87c0.01-1.67,0.63-2.83,2.52-2.81c1.86,0.02,2.52,1.1,2.52,2.81
	c-0.01,5.24,0,10.49-0.01,15.73c0,1.63-0.55,2.87-2.41,3c-1.6,0.11-2.56-0.94-2.61-3C263.81,210.69,263.86,208.07,263.86,205.44z"/>
<path class="st0" d="M156.97,69.13c18.08,30.94,35.95,61.53,53.95,92.33c-36.02,0-71.82,0-107.9,0
	C120.98,130.72,138.88,100.09,156.97,69.13z"/>
<path class="st0" d="M121.72,100.3c-13.4-22.83-26.57-45.28-39.86-67.93c26.66,0,53.05,0,79.73,0
	C148.3,55,135.12,77.46,121.72,100.3z"/>
<path class="st0" d="M111.4,117.81c-5.55,9.56-10.99,18.92-16.42,28.28c-1.04,1.79-2.15,3.54-3.09,5.39
	c-0.59,1.16-1.36,1.46-2.62,1.45c-11.68-0.05-23.36-0.01-35.04-0.07c-0.8,0-1.96-0.45-2.32-1.07c-6.55-11.12-13.01-22.3-19.48-33.46
	c-0.06-0.11-0.08-0.25-0.17-0.52C58.57,117.81,84.84,117.81,111.4,117.81z"/>
<path class="st0" d="M32.11,105.9c5.82-9.96,11.77-19.59,17.1-29.56c2.2-4.11,4.69-5.42,9.27-5.24c10.14,0.4,20.32,0.17,30.47,0.08
	c1.7-0.02,2.54,0.59,3.35,1.99c5.97,10.34,12.02,20.63,18.04,30.94c0.31,0.53,0.6,1.07,1.01,1.78
	C84.92,105.9,58.65,105.9,32.11,105.9z"/>
<path class="st1" d="M88.64,67.05c-11.38,0-22.41,0-33.78,0c5.65-9.71,11.21-19.25,16.89-29C77.4,47.75,82.93,57.25,88.64,67.05z"/>
<path class="st1" d="M71.75,186.09c-5.7-9.78-11.23-19.28-16.87-28.96c11.34,0,22.4,0,33.73,0
	C82.97,166.81,77.44,176.31,71.75,186.09z"/>
</svg>
